# This file uses centimeters as units for non-parametric coordinates.

mtllib frame.mtl
v -1.181846 1.181846 0.050000
v 1.181846 1.181846 0.050000
v 1.302907 1.302907 0.050000
v -1.302907 1.302907 0.050000
vt 0.663904 0.664515
vt 0.663904 6.072761
vt 0.336096 6.400569
vt 0.336096 0.336706
vn 0.000000 0.000000 1.000000
vn 0.000000 0.000000 1.000000
vn 0.000000 0.000000 1.000000
vn 0.000000 0.000000 1.000000
g frame_top
usemtl lambert2SG
f 1/1/1 2/2/2 4/4/3
f 4/4/3 2/2/2 3/3/4
v 1.181846 -1.181846 0.050000
v -1.181846 -1.181846 0.050000
v -1.302907 -1.302907 0.050000
v 1.302907 -1.302907 0.050000
vt 0.336095 0.336705
vt 0.336096 -5.071541
vt 0.663905 -5.399349
vt 0.663904 0.664514
vn 0.000000 0.000000 1.000000
vn 0.000000 0.000000 1.000000
vn 0.000000 0.000000 1.000000
vn 0.000000 0.000000 1.000000
g frame_bottom
f 5/5/5 6/6/6 8/8/7
f 8/8/7 6/6/6 7/7/8
v -1.183208 -1.183208 0.000000
v 1.183208 -1.183208 0.000000
v -1.183208 1.183208 0.000000
v 1.183208 1.183208 0.000000
v -1.304269 1.304269 -0.050000
v 1.304269 1.304269 -0.050000
v 1.304269 -1.304269 -0.050000
v -1.304269 -1.304269 -0.050000
v -1.181846 1.181846 0.050000
v 1.181846 1.181846 0.050000
v 1.302907 1.302907 0.050000
v -1.302907 1.302907 0.050000
v -1.181846 -1.181846 0.050000
v 1.181846 -1.181846 0.050000
v -1.302907 -1.302907 0.050000
v 1.302907 -1.302907 0.050000
vt 3.204123 3.204733
vt 3.204123 -2.203513
vt 3.531932 -2.531322
vt 3.531932 3.532542
vt -2.204123 -2.203513
vt -2.204123 3.204733
vt -2.531932 3.532542
vt -2.531932 -2.531322
vt 3.909719 2.768029
vt 3.909719 -2.689379
vt 4.046154 -2.685663
vt 4.046154 2.764311
vt -3.364739 -2.689379
vt -3.364739 3.428705
vt -3.637609 3.424988
vt -3.637609 -2.685663
vt 4.243305 -2.689379
vt 4.243305 2.768029
vt 4.106871 2.764311
vt 4.106871 -2.685663
vt -3.295282 3.428705
vt -3.295282 -2.689379
vt -3.022412 -2.685663
vt -3.022412 3.424988
vt 4.304023 2.768029
vt 4.304023 -2.689379
vt 4.440458 -2.685662
vt 4.440458 2.764311
vt -2.681877 -2.689379
vt -2.681877 3.428705
vt -2.954748 3.424988
vt -2.954748 -2.685662
vt 4.637609 -2.689379
vt 4.637609 2.768029
vt 4.501174 2.764311
vt 4.501174 -2.685662
vt -2.614213 3.428705
vt -2.614213 -2.689379
vt -2.341342 -2.685662
vt -2.341342 3.424988
vn 0.000000 0.000000 1.000000
vn 0.000000 0.000000 1.000000
vn 0.000000 0.000000 1.000000
vn 0.000000 0.000000 1.000000
vn -0.000000 0.000000 1.000000
vn -0.000000 0.000000 1.000000
vn -0.000000 0.000000 1.000000
vn 0.000000 0.000000 1.000000
vn 0.000000 -0.999629 -0.027230
vn 0.000000 -0.999629 -0.027231
vn 0.000000 -0.999629 -0.027231
vn 0.000000 -0.999629 -0.027232
vn 0.000000 0.999907 0.013620
vn 0.000000 0.999907 0.013620
vn 0.000000 0.999907 0.013620
vn 0.000000 0.999907 0.013620
vn 0.000000 0.999629 -0.027230
vn 0.000000 0.999629 -0.027231
vn 0.000000 0.999629 -0.027231
vn 0.000000 0.999629 -0.027232
vn 0.000000 -0.999907 0.013620
vn 0.000000 -0.999907 0.013620
vn 0.000000 -0.999907 0.013620
vn 0.000000 -0.999907 0.013620
vn -0.999629 0.000000 -0.027232
vn -0.999629 0.000000 -0.027232
vn -0.999629 0.000000 -0.027232
vn -0.999629 0.000000 -0.027232
vn 0.999907 0.000000 0.013620
vn 0.999907 0.000000 0.013620
vn 0.999907 0.000000 0.013620
vn 0.999907 0.000000 0.013620
vn 0.999629 0.000000 -0.027232
vn 0.999629 0.000000 -0.027232
vn 0.999629 0.000000 -0.027232
vn 0.999629 0.000000 -0.027232
vn -0.999907 0.000000 0.013620
vn -0.999907 0.000000 0.013620
vn -0.999907 0.000000 0.013620
vn -0.999907 0.000000 0.013620
g frame_sides
f 18/9/9 22/10/10 19/12/11
f 19/12/11 22/10/10 24/11/12
f 21/13/13 17/14/14 23/16/15
f 23/16/15 17/14/14 20/15/16
f 11/17/17 12/18/18 17/20/19
f 17/20/19 12/18/18 18/19/20
f 14/21/21 13/22/22 19/24/23
f 19/24/23 13/22/22 20/23/24
f 10/25/25 9/26/26 22/28/27
f 22/28/27 9/26/26 21/27/28
f 16/29/29 15/30/30 23/32/31
f 23/32/31 15/30/30 24/31/32
f 12/33/33 10/34/34 18/36/35
f 18/36/35 10/34/34 22/35/36
f 15/37/37 14/38/38 24/40/39
f 24/40/39 14/38/38 19/39/40
f 9/41/41 11/42/42 21/44/43
f 21/44/43 11/42/42 17/43/44
f 13/45/45 16/46/46 20/48/47
f 20/48/47 16/46/46 23/47/48
v -1.181846 1.183208 0.009079
v 1.183208 1.183208 0.009079
v -1.181846 -1.183208 0.009079
v 1.183208 -1.183208 0.009079
v -0.998638 1.000000 0.009079
v 1.000000 1.000000 0.009079
v 1.000000 -1.000000 0.009079
v -0.998638 -1.000000 0.009079
v -0.998638 1.000000 0.000000
v 1.000000 1.000000 0.000000
v 1.000000 -1.000000 0.000000
v -0.998638 -1.000000 0.000000
vt 0.000000 0.000000
vt 1.000000 0.000000
vt 0.000000 0.025017
vt 1.000000 0.025017
vt 0.000000 0.000000
vt 1.000000 0.000000
vt 1.000000 0.025017
vt 0.000000 0.025017
vt 0.000000 0.000000
vt 1.000000 0.000000
vt 1.000000 0.025017
vt 0.000000 0.025017
vn -0.000000 0.000000 -1.000000
vn 0.000000 0.000000 -1.000000
vn 0.000000 0.000000 -1.000000
vn 0.000000 0.000000 -1.000000
vn 0.000000 0.000000 -1.000000
vn 0.000000 0.000000 -1.000000
vn -0.000000 0.000000 -1.000000
vn -0.000000 0.000000 -1.000000
vn 0.000000 1.000000 0.000000
vn 0.000000 1.000000 0.000000
vn 0.000000 1.000000 0.000000
vn 0.000000 1.000000 0.000000
vn 1.000000 0.000000 0.000000
vn 1.000000 0.000000 0.000000
vn 1.000000 0.000000 0.000000
vn 1.000000 0.000000 0.000000
vn 0.000000 -1.000000 0.000000
vn 0.000000 -1.000000 0.000000
vn 0.000000 -1.000000 0.000000
vn 0.000000 -1.000000 0.000000
vn -1.000000 0.000000 0.000000
vn -1.000000 0.000000 0.000000
vn -1.000000 0.000000 0.000000
vn -1.000000 0.000000 0.000000
g padding
usemtl lambert3SG
f 25/49/49 26/50/50 29/53/51
f 29/53/51 26/50/50 30/54/52
f 26/50/50 28/52/53 30/54/52
f 30/54/52 28/52/53 31/55/54
f 28/52/53 27/51/55 31/55/54
f 31/55/54 27/51/55 32/56/56
f 27/51/55 25/49/49 32/56/56
f 32/56/56 25/49/49 29/53/51
f 29/53/57 30/54/58 33/57/59
f 33/57/59 30/54/58 34/58/60
f 30/54/61 31/55/62 34/58/63
f 34/58/63 31/55/62 35/59/64
f 31/55/65 32/56/66 35/59/67
f 35/59/67 32/56/66 36/60/68
f 32/56/69 29/53/70 36/60/71
f 36/60/71 29/53/70 33/57/72
