# This file uses centimeters as units for non-parametric coordinates.

mtllib gallery_template_01_display.mtl
v -6.000000 5.000000 12.000000
v -6.000000 0.000000 12.000000
v 6.000000 5.000000 12.000000
v 6.000000 0.000000 12.000000
vt 5.772650 -5.830028
vt 5.772650 -0.920248
vt -5.634198 -0.920247
vt -5.634199 -5.830027
vn 0.000000 0.000000 -1.000000
vn 0.000000 0.000000 -1.000000
vn 0.000000 0.000000 -1.000000
vn 0.000000 0.000000 -1.000000
g polySurface41 display_model
usemtl lambert2SG
f 2/1/1 1/2/2 4/4/3
f 4/4/3 1/2/2 3/3/4
v 22.000000 5.000000 12.000000
v 22.000000 0.000000 12.000000
v 6.373124 5.000000 12.000000
v 6.373124 0.000000 12.000000
vt 35.323662 -3.217123
vt 35.323662 -8.126901
vt 20.476919 -3.217124
vt 20.476913 -8.126901
vn 0.000000 0.000000 -1.000000
vn 0.000000 0.000000 -1.000000
vn 0.000000 0.000000 -1.000000
vn 0.000000 0.000000 -1.000000
g display_model polySurface40
f 8/6/5 7/5/6 6/8/7
f 6/8/7 7/5/6 5/7/8
v -22.000000 5.000000 12.000000
v -22.000000 0.000000 12.000000
v -6.373124 5.000000 12.000000
v -6.373124 0.000000 12.000000
vt 14.818250 0.000002
vt 14.818251 4.909778
vt -0.000001 4.909781
vt -0.000000 0.000000
vn 0.000000 0.000000 -1.000000
vn 0.000000 0.000000 -1.000000
vn 0.000000 0.000000 -1.000000
vn 0.000000 0.000000 -1.000000
g display_model polySurface38
f 10/9/9 9/10/10 12/12/11
f 12/12/11 9/10/10 11/11/12
v 22.000000 3.000000 -5.000000
v 22.000000 5.000000 -5.000000
v 22.000000 -0.000000 -5.000000
v 6.373124 5.000000 -5.000000
v 6.373124 3.000000 -5.000000
v 6.373124 -0.000000 -5.000000
vt 26.884441 5.100000
vt 26.884439 3.050000
vt 42.193081 3.050000
vt 42.193081 5.099999
vt 26.884441 0.000000
vt 42.193081 0.000000
vn 0.000000 0.000000 1.000000
vn 0.000000 0.000000 1.000000
vn 0.000000 0.000000 1.000000
vn 0.000000 0.000000 1.000000
vn 0.000000 0.000000 1.000000
vn 0.000000 0.000000 1.000000
g display_model polySurface30
f 16/13/13 17/14/14 14/16/15
f 14/16/15 17/14/14 13/15/16
f 17/14/14 18/17/17 13/15/16
f 13/15/16 18/17/17 15/18/18
v 22.000000 0.000000 -23.000000
v 22.000000 5.000000 -23.000000
v 22.000000 5.000000 -5.317296
v 22.000000 -0.000000 -5.317296
vt 17.951830 0.000000
vt 17.951830 5.090522
vt 0.000000 0.000000
vt 0.000004 5.090524
vn -1.000000 0.000000 0.000000
vn -1.000000 0.000000 0.000000
vn -1.000000 0.000000 0.000000
vn -1.000000 0.000000 0.000000
g display_model polySurface35
f 19/21/19 22/19/20 20/22/21
f 20/22/21 22/19/20 21/20/22
v -22.000000 5.000000 12.000000
v -22.000000 -0.000000 12.000000
v -22.000000 5.000000 -5.000000
v -22.000000 -0.000000 -5.000000
vt 17.301884 5.086390
vt 17.301884 0.000003
vt 0.000004 5.086392
vt 0.000000 0.000000
vn 1.000000 0.000000 0.000000
vn 1.000000 0.000000 0.000000
vn 1.000000 0.000000 0.000000
vn 1.000000 0.000000 0.000000
g display_model polySurface37
f 25/23/23 23/25/24 26/24/25
f 26/24/25 23/25/24 24/26/26
v -22.000000 5.000000 -23.000000
v -22.000000 0.000000 -23.000000
v -22.000000 5.000000 -5.317296
v -22.000000 -0.000000 -5.317296
vt 17.973745 5.086387
vt -0.000000 5.086385
vt 0.000000 0.000000
vt 17.973742 -0.000003
vn 1.000000 0.000000 0.000000
vn 1.000000 0.000000 0.000000
vn 1.000000 0.000000 0.000000
vn 1.000000 0.000000 0.000000
g display_model polySurface36
f 27/27/27 29/28/28 28/30/29
f 28/30/29 29/28/28 30/29/30
v 2.000000 5.000000 -5.317296
v 22.000000 5.000000 -5.317296
v 22.000000 3.000000 -5.317296
v -2.000000 5.000000 -5.317296
v 2.000000 3.000000 -5.317296
v -2.000000 3.000000 -5.317296
v -22.000000 3.000000 -5.317296
v -22.000000 5.000000 -5.317296
v -22.000000 -0.000000 -5.317296
v -2.000000 -0.000000 -5.317296
v 2.000000 -0.000000 -5.317296
v 22.000000 -0.000000 -5.317296
vt 20.404789 3.060713
vt 20.404789 5.101190
vt -0.000000 3.060712
vt 24.485741 5.101190
vt -0.000000 5.101189
vt -0.000000 0.000000
vt 24.485741 3.060713
vt 20.404789 -0.000002
vt 44.890526 5.101189
vt 44.890533 3.060712
vt 24.485741 -0.000002
vt 44.890526 0.000000
vn 0.000000 0.000000 -1.000000
vn 0.000000 0.000000 -1.000000
vn 0.000000 0.000000 -1.000000
vn 0.000000 0.000000 -1.000000
vn 0.000000 0.000000 -1.000000
vn 0.000000 0.000000 -1.000000
vn 0.000000 0.000000 -1.000000
vn 0.000000 0.000000 -1.000000
vn 0.000000 0.000000 -1.000000
vn 0.000000 0.000000 -1.000000
vn 0.000000 0.000000 -1.000000
vn 0.000000 0.000000 -1.000000
g display_model polySurface12
f 35/31/31 31/32/32 33/33/33
f 33/33/33 31/32/32 32/35/34
f 36/37/35 34/34/36 35/31/31
f 35/31/31 34/34/36 31/32/32
f 37/40/37 38/39/38 36/37/35
f 36/37/35 38/39/38 34/34/36
f 39/42/39 37/40/37 40/41/40
f 40/41/40 37/40/37 36/37/35
f 41/38/41 35/31/31 42/36/42
f 42/36/42 35/31/31 33/33/33
v -22.000000 5.000000 -5.000000
v -22.000000 3.000000 -5.000000
v -22.000000 -0.000000 -5.000000
v -6.373125 3.000000 -5.000000
v -6.373125 5.000000 -5.000000
v -6.373125 -0.000000 -5.000000
vt 0.000000 5.100000
vt 0.000000 3.050000
vt 15.070522 3.050000
vt 15.070522 5.100000
vt 0.000000 0.000000
vt 15.070522 0.000000
vn 0.000000 0.000000 1.000000
vn 0.000000 0.000000 1.000000
vn 0.000000 0.000000 1.000000
vn 0.000000 0.000000 1.000000
vn 0.000000 0.000000 1.000000
vn 0.000000 0.000000 1.000000
g display_model polySurface33
f 43/43/43 44/44/44 47/46/45
f 47/46/45 44/44/44 46/45/46
f 44/44/44 45/47/47 46/45/46
f 46/45/46 45/47/47 48/48/48
v 2.000000 5.000000 -5.000000
v -2.000000 3.000000 -5.000000
v 2.000000 3.000000 -5.000000
v -2.000000 5.000000 -5.000000
v -2.000000 -0.000000 -5.000000
v 2.000000 -0.000000 -5.000000
v -6.000000 5.000000 -5.000000
v -6.000000 3.000000 -5.000000
v -6.000000 -0.000000 -5.000000
v 6.000000 5.000000 -5.000000
v 6.000000 3.000000 -5.000000
v 6.000000 -0.000000 -5.000000
vt 18.341700 5.100000
vt 18.341698 3.050000
vt 22.316929 3.050000
vt 22.316929 5.100000
vt 15.106916 5.100000
vt 15.106916 3.050000
vt 15.106916 0.000000
vt 18.341698 0.000000
vt 25.940722 3.050000
vt 25.940722 5.100000
vt 22.316929 0.000000
vt 25.940727 0.000000
vn 0.000000 0.000000 1.000000
vn 0.000000 0.000000 1.000000
vn 0.000000 0.000000 1.000000
vn 0.000000 0.000000 1.000000
vn 0.000000 0.000000 1.000000
vn 0.000000 0.000000 1.000000
vn 0.000000 0.000000 1.000000
vn 0.000000 0.000000 1.000000
vn 0.000000 0.000000 1.000000
vn 0.000000 0.000000 1.000000
vn 0.000000 0.000000 1.000000
vn 0.000000 0.000000 1.000000
g display_model polySurface32
f 52/49/49 50/50/50 49/52/51
f 49/52/51 50/50/50 51/51/52
f 55/53/53 56/54/54 52/49/49
f 52/49/49 56/54/54 50/50/50
f 56/54/54 57/55/55 50/50/50
f 50/50/50 57/55/55 53/56/56
f 49/52/51 51/51/52 58/58/57
f 58/58/57 51/51/52 59/57/58
f 51/51/52 54/59/59 59/57/58
f 59/57/58 54/59/59 60/60/60
v 22.000000 -0.000000 12.000000
v 22.000000 5.000000 12.000000
v 22.000000 5.000000 -5.005299
v 22.000000 0.000000 -4.994701
vt -2.473339 -8.000146
vt 14.831159 -8.000147
vt 14.831159 -2.913758
vt -2.473339 -2.913760
vn -1.000000 0.000000 0.000000
vn -1.000000 0.000000 0.000000
vn -1.000000 0.000000 0.000000
vn -1.000000 0.000000 0.000000
g display_model polySurface34
f 61/62/61 62/63/62 64/61/63
f 64/61/63 62/63/62 63/64/64
v 6.000000 5.000000 1.000000
v 6.000000 5.000000 -5.000000
v 6.000000 3.000000 -5.000000
v 6.000000 5.000000 12.000000
v 6.000000 5.000000 5.000000
v 6.000000 3.000000 12.000000
v 6.000000 3.000000 1.000000
v 6.000000 3.000000 5.000000
v 6.000000 0.000000 5.000000
v 6.000000 0.000000 12.000000
v 6.000000 0.000000 -5.000000
v 6.000000 0.000000 1.000000
vt -4.131945 5.100000
vt -10.568619 5.100000
vt -10.568619 3.050000
vt -4.131945 3.050000
vt 7.668619 5.100000
vt 0.159169 5.100000
vt 0.159169 3.050000
vt 7.668619 3.050000
vt 0.159170 0.000000
vt 7.668619 0.000000
vt -10.568619 0.000000
vt -4.131945 0.000000
vn -1.000000 0.000000 0.000000
vn -1.000000 0.000000 0.000000
vn -1.000000 0.000000 0.000000
vn -1.000000 0.000000 0.000000
vn -1.000000 0.000000 0.000000
vn -1.000000 0.000000 0.000000
vn -1.000000 0.000000 0.000000
vn -1.000000 0.000000 0.000000
vn -1.000000 0.000000 0.000000
vn -1.000000 0.000000 0.000000
vn -1.000000 0.000000 0.000000
vn -1.000000 0.000000 0.000000
g display_model polySurface5
f 65/65/65 66/66/66 71/68/67
f 71/68/67 66/66/66 67/67/68
f 68/69/69 69/70/70 70/72/71
f 70/72/71 69/70/70 72/71/72
f 69/70/70 65/65/65 72/71/72
f 72/71/72 65/65/65 71/68/67
f 70/72/71 72/71/72 74/74/73
f 74/74/73 72/71/72 73/73/74
f 67/67/68 75/75/75 71/68/67
f 71/68/67 75/75/75 76/76/76
v 6.373124 3.000000 -5.000000
v 6.373124 5.000000 -5.000000
v 6.373124 5.000000 1.000000
v 6.373124 5.000000 12.000000
v 6.373124 3.000000 12.000000
v 6.373124 5.000000 5.000000
v 6.373124 3.000000 5.000000
v 6.373124 3.000000 1.000000
v 6.373124 0.000000 12.000000
v 6.373124 0.000000 5.000000
v 6.373124 0.000000 1.000000
v 6.373124 0.000000 -5.000000
vt 20.081947 5.100000
vt 20.081947 3.050000
vt 26.518621 3.050000
vt 26.518621 5.100000
vt 8.281381 5.100000
vt 8.281381 3.050000
vt 15.790834 3.050000
vt 15.790833 5.100000
vt 8.281381 0.000000
vt 15.790834 0.000000
vt 20.081947 0.000000
vt 26.518620 0.000000
vn 1.000000 0.000000 0.000000
vn 1.000000 0.000000 0.000000
vn 1.000000 0.000000 0.000000
vn 1.000000 0.000000 0.000000
vn 1.000000 0.000000 0.000000
vn 1.000000 0.000000 0.000000
vn 1.000000 0.000000 0.000000
vn 1.000000 0.000000 0.000000
vn 1.000000 0.000000 0.000000
vn 1.000000 0.000000 0.000000
vn 1.000000 0.000000 0.000000
vn 1.000000 0.000000 0.000000
g display_model polySurface7
f 79/77/77 84/78/78 78/80/79
f 78/80/79 84/78/78 77/79/80
f 80/81/81 81/82/82 82/84/83
f 82/84/83 81/82/82 83/83/84
f 82/84/83 83/83/84 79/77/77
f 79/77/77 83/83/84 84/78/78
f 81/82/82 85/85/85 83/83/84
f 83/83/84 85/85/85 86/86/86
f 77/79/80 84/78/78 88/88/87
f 88/88/87 84/78/78 87/87/88
v -6.373124 5.000000 1.000000
v -6.373124 5.000000 5.000000
v -6.373124 5.000000 -5.000000
v -6.373124 3.000000 -5.000000
v -6.373124 3.000000 12.000000
v -6.373124 5.000000 12.000000
v -6.373124 3.000000 1.000000
v -6.373124 3.000000 5.000000
v -6.373124 0.000000 5.000000
v -6.373124 0.000000 12.000000
v -6.373124 0.000000 -5.000000
v -6.373124 0.000000 1.000000
vt -4.131945 5.100000
vt -10.568619 5.100000
vt -10.568619 3.050000
vt -4.131945 3.050000
vt 7.668619 5.100000
vt 0.159169 5.100000
vt 0.159169 3.050000
vt 7.668619 3.050000
vt 0.159170 0.000000
vt 7.668619 0.000000
vt -10.568619 0.000000
vt -4.131945 0.000000
vn -1.000000 0.000000 0.000000
vn -1.000000 0.000000 0.000000
vn -1.000000 0.000000 0.000000
vn -1.000000 0.000000 0.000000
vn -1.000000 0.000000 0.000000
vn -1.000000 0.000000 0.000000
vn -1.000000 0.000000 0.000000
vn -1.000000 0.000000 0.000000
vn -1.000000 0.000000 0.000000
vn -1.000000 0.000000 0.000000
vn -1.000000 0.000000 0.000000
vn -1.000000 0.000000 0.000000
g display_model polySurface3
f 89/89/89 91/90/90 95/92/91
f 95/92/91 91/90/90 92/91/92
f 94/93/93 90/94/94 93/96/95
f 93/96/95 90/94/94 96/95/96
f 90/94/94 89/89/89 96/95/96
f 96/95/96 89/89/89 95/92/91
f 93/96/95 96/95/96 98/98/97
f 98/98/97 96/95/96 97/97/98
f 92/91/92 99/99/99 95/92/91
f 95/92/91 99/99/99 100/100/100
v -6.000000 5.000000 5.000000
v -6.000000 5.000000 1.000000
v -6.000000 3.000000 -5.000000
v -6.000000 5.000000 -5.000000
v -6.000000 5.000000 12.000000
v -6.000000 3.000000 12.000000
v -6.000000 3.000000 5.000000
v -6.000000 3.000000 1.000000
v -6.000000 0.000000 12.000000
v -6.000000 0.000000 5.000000
v -6.000000 0.000000 1.000000
v -6.000000 0.000000 -5.000000
vt 20.081947 5.100000
vt 20.081947 3.050000
vt 26.518621 3.050000
vt 26.518621 5.100000
vt 8.281381 5.100000
vt 8.281381 3.050000
vt 15.790834 3.050000
vt 15.790833 5.100000
vt 8.281381 0.000000
vt 15.790834 0.000000
vt 20.081947 0.000000
vt 26.518620 0.000000
vn 1.000000 0.000000 0.000000
vn 1.000000 0.000000 0.000000
vn 1.000000 0.000000 0.000000
vn 1.000000 0.000000 0.000000
vn 1.000000 0.000000 0.000000
vn 1.000000 0.000000 0.000000
vn 1.000000 0.000000 0.000000
vn 1.000000 0.000000 0.000000
vn 1.000000 0.000000 0.000000
vn 1.000000 0.000000 0.000000
vn 1.000000 0.000000 0.000000
vn 1.000000 0.000000 0.000000
g display_model polySurface2
f 102/101/101 108/102/102 104/104/103
f 104/104/103 108/102/102 103/103/104
f 105/105/105 106/106/106 101/108/107
f 101/108/107 106/106/106 107/107/108
f 101/108/107 107/107/108 102/101/101
f 102/101/101 107/107/108 108/102/102
f 106/106/106 109/109/109 107/107/108
f 107/107/108 109/109/109 110/110/110
f 103/103/104 108/102/102 112/112/111
f 112/112/111 108/102/102 111/111/112
v -22.000000 -0.000000 -23.000000
v 22.000000 -0.000000 -23.000000
v -22.000000 5.000000 -23.000000
v 22.000000 5.000000 -23.000000
vt -0.000000 -0.000000
vt 44.552555 -0.000000
vt -0.000000 5.062793
vt 44.552555 5.062793
vn 0.000000 0.000000 1.000000
vn 0.000000 0.000000 1.000000
vn 0.000000 0.000000 1.000000
vn 0.000000 0.000000 1.000000
g display_model pPlane6
f 113/113/113 114/114/114 115/115/115
f 115/115/115 114/114/114 116/116/116
