# This file uses centimeters as units for non-parametric coordinates.

mtllib gallery_template_01_display.mtl
v -22.000000 5.000000 12.000000
v 22.000000 5.000000 12.000000
v -22.000000 0.000000 12.000000
v 22.000000 0.000000 12.000000
vt -0.846471 5.739474
vt -0.846471 -4.739476
vt 0.900021 -4.739476
vt 0.900021 5.739474
vn 0.000000 0.000000 -1.000000
vn 0.000000 0.000000 -1.000000
vn 0.000000 0.000000 -1.000000
vn 0.000000 0.000000 -1.000000
g pPlane2 display_model
usemtl lambert2SG
f 1/1/1 2/2/2 3/4/3
f 3/4/3 2/2/2 4/3/4
v -22.000000 5.000000 12.000000
v -22.000000 -0.000000 12.000000
v -22.000000 5.000000 -23.000000
v -22.000000 0.000000 -23.000000
vt 0.976086 6.832603
vt -0.833229 6.832603
vt 0.976086 -5.832604
vt -0.833229 -5.832604
vn 1.000000 0.000000 0.000000
vn 1.000000 0.000000 0.000000
vn 1.000000 0.000000 0.000000
vn 1.000000 0.000000 0.000000
g display_model pPlane3
f 5/5/5 6/6/6 7/7/7
f 7/7/7 6/6/6 8/8/8
v 2.000000 5.000000 -5.317296
v 22.000000 5.000000 -5.317296
v 22.000000 3.000000 -5.317296
v -2.000000 5.000000 -5.317296
v 2.000000 3.000000 -5.317296
v -2.000000 3.000000 -5.317296
v -22.000000 3.000000 -5.317296
v -22.000000 5.000000 -5.317296
v -22.000000 -0.000000 -5.317296
v -2.000000 -0.000000 -5.317296
v 2.000000 -0.000000 -5.317296
v 22.000000 -0.000000 -5.317296
vt -0.131184 -0.252003
vt -0.883187 -0.252003
vt -0.131184 -7.772047
vt -0.883187 1.252004
vt -0.883187 -7.772047
vt 0.996822 -7.772047
vt -0.131184 1.252004
vt 0.996822 -0.252003
vt -0.883187 8.772047
vt -0.131184 8.772047
vt 0.996822 1.252004
vt 0.996822 8.772047
vn 0.000000 0.000000 -1.000000
vn 0.000000 0.000000 -1.000000
vn 0.000000 0.000000 -1.000000
vn 0.000000 0.000000 -1.000000
vn 0.000000 0.000000 -1.000000
vn 0.000000 0.000000 -1.000000
vn 0.000000 0.000000 -1.000000
vn 0.000000 0.000000 -1.000000
vn 0.000000 0.000000 -1.000000
vn 0.000000 0.000000 -1.000000
vn 0.000000 0.000000 -1.000000
vn 0.000000 0.000000 -1.000000
g display_model polySurface12
f 13/9/9 9/10/10 11/11/11
f 11/11/11 9/10/10 10/13/12
f 14/15/13 12/12/14 13/9/9
f 13/9/9 12/12/14 9/10/10
f 15/18/15 16/17/16 14/15/13
f 14/15/13 16/17/16 12/12/14
f 17/20/17 15/18/15 18/19/18
f 18/19/18 15/18/15 14/15/13
f 19/16/19 13/9/9 20/14/20
f 20/14/20 13/9/9 11/11/11
v 22.000000 3.000000 -5.000000
v 22.000000 5.000000 -5.000000
v 2.000000 5.000000 -5.000000
v -2.000000 3.000000 -5.000000
v 2.000000 3.000000 -5.000000
v -2.000000 5.000000 -5.000000
v -22.000000 5.000000 -5.000000
v -22.000000 3.000000 -5.000000
v -22.000000 -0.000000 -5.000000
v -2.000000 -0.000000 -5.000000
v 2.000000 -0.000000 -5.000000
v 22.000000 -0.000000 -5.000000
vt 0.244819 -0.252004
vt 0.244819 -7.772046
vt 0.996824 -0.252004
vt -0.883187 -7.772046
vt 0.996824 -7.772046
vt 0.996824 1.252004
vt -0.883187 -0.252004
vt 0.244819 1.252004
vt 0.996824 8.772047
vt 0.244819 8.772047
vt -0.883187 1.252004
vt -0.883187 8.772047
vn 0.000000 0.000000 1.000000
vn 0.000000 0.000000 1.000000
vn 0.000000 0.000000 1.000000
vn 0.000000 0.000000 1.000000
vn 0.000000 0.000000 1.000000
vn 0.000000 0.000000 1.000000
vn 0.000000 0.000000 1.000000
vn 0.000000 0.000000 1.000000
vn 0.000000 0.000000 1.000000
vn 0.000000 0.000000 1.000000
vn 0.000000 0.000000 1.000000
vn 0.000000 0.000000 1.000000
g display_model polySurface14
f 25/21/21 21/22/22 23/23/23
f 23/23/23 21/22/22 22/25/24
f 24/28/25 25/21/21 26/26/26
f 26/26/26 25/21/21 23/23/23
f 28/30/27 24/28/25 27/29/28
f 27/29/28 24/28/25 26/26/26
f 29/32/29 30/31/30 28/30/27
f 28/30/27 30/31/30 24/28/25
f 31/27/31 32/24/32 25/21/21
f 25/21/21 32/24/32 21/22/22
v -2.000000 3.000000 -5.000000
v -2.000000 3.000000 -5.317296
v -2.000000 -0.000000 -5.000000
v -2.000000 -0.000000 -5.317296
vt 2.260681 -4.112988
vt 2.163102 -4.112988
vt 2.260681 -3.190390
vt 2.163102 -3.190390
vn 1.000000 0.000000 0.000000
vn 1.000000 0.000000 0.000000
vn 1.000000 0.000000 0.000000
vn 1.000000 0.000000 0.000000
g display_model polySurface26
f 35/33/33 36/34/34 33/35/35
f 33/35/35 36/34/34 34/36/36
v 2.000000 3.000000 -5.000000
v 2.000000 3.000000 -5.317296
v 2.000000 -0.000000 -5.317296
v 2.000000 -0.000000 -5.000000
vt 2.315680 -3.190390
vt 2.413259 -3.190390
vt 2.315680 -4.112988
vt 2.413259 -4.112988
vn -1.000000 0.000000 0.000000
vn -1.000000 0.000000 0.000000
vn -1.000000 0.000000 0.000000
vn -1.000000 0.000000 0.000000
g display_model polySurface27
f 37/37/37 38/38/38 40/39/39
f 40/39/39 38/38/38 39/40/40
v 22.000000 -0.000000 12.000000
v 22.000000 5.000000 12.000000
v 22.000000 0.000000 -23.000000
v 22.000000 5.000000 -23.000000
vt -0.833229 -5.832604
vt 0.976086 -5.832604
vt -0.833229 6.832603
vt 0.976086 6.832603
vn -1.000000 0.000000 0.000000
vn -1.000000 0.000000 0.000000
vn -1.000000 0.000000 0.000000
vn -1.000000 0.000000 0.000000
g display_model pPlane4
f 41/41/41 42/42/42 43/43/43
f 43/43/43 42/42/42 44/44/44
v 6.000000 5.000000 1.000000
v 6.000000 5.000000 -5.000000
v 6.000000 3.000000 -5.000000
v 6.000000 5.000000 12.000000
v 6.000000 5.000000 5.000000
v 6.000000 3.000000 12.000000
v 6.000000 3.000000 1.000000
v 6.000000 3.000000 5.000000
v 6.000000 0.000000 5.000000
v 6.000000 0.000000 12.000000
v 6.000000 0.000000 -5.000000
v 6.000000 0.000000 1.000000
vt -0.331792 -0.446202
vt -0.331792 -2.717088
vt -1.088754 -2.717088
vt -1.088754 -0.446202
vt -0.331792 3.717088
vt -0.331792 1.067721
vt -1.088754 1.067721
vt -1.088754 3.717088
vt -2.224197 1.067721
vt -2.224197 3.717088
vt -2.224197 -2.717088
vt -2.224197 -0.446202
vn -1.000000 0.000000 0.000000
vn -1.000000 0.000000 0.000000
vn -1.000000 0.000000 0.000000
vn -1.000000 0.000000 0.000000
vn -1.000000 0.000000 0.000000
vn -1.000000 0.000000 0.000000
vn -1.000000 0.000000 0.000000
vn -1.000000 0.000000 0.000000
vn -1.000000 0.000000 0.000000
vn -1.000000 0.000000 0.000000
vn -1.000000 0.000000 0.000000
vn -1.000000 0.000000 0.000000
g display_model polySurface5
f 45/45/45 46/46/46 51/48/47
f 51/48/47 46/46/46 47/47/48
f 48/49/49 49/50/50 50/52/51
f 50/52/51 49/50/50 52/51/52
f 49/50/50 45/45/45 52/51/52
f 52/51/52 45/45/45 51/48/47
f 50/52/51 52/51/52 54/54/53
f 54/54/53 52/51/52 53/53/54
f 47/47/48 55/55/55 51/48/47
f 51/48/47 55/55/55 56/56/56
v 6.373124 3.000000 -5.000000
v 6.373124 5.000000 -5.000000
v 6.373124 5.000000 1.000000
v 6.373124 5.000000 12.000000
v 6.373124 3.000000 12.000000
v 6.373124 5.000000 5.000000
v 6.373124 3.000000 5.000000
v 6.373124 3.000000 1.000000
v 6.373124 0.000000 12.000000
v 6.373124 0.000000 5.000000
v 6.373124 0.000000 1.000000
v 6.373124 0.000000 -5.000000
vt 1.604557 1.446203
vt 0.847595 1.446203
vt 0.847595 3.717088
vt 1.604557 3.717088
vt 1.604557 -2.717088
vt 0.847595 -2.717088
vt 0.847595 -0.067721
vt 1.604557 -0.067721
vt -0.287848 -2.717088
vt -0.287848 -0.067721
vt -0.287848 1.446203
vt -0.287848 3.717088
vn 1.000000 0.000000 0.000000
vn 1.000000 0.000000 0.000000
vn 1.000000 0.000000 0.000000
vn 1.000000 0.000000 0.000000
vn 1.000000 0.000000 0.000000
vn 1.000000 0.000000 0.000000
vn 1.000000 0.000000 0.000000
vn 1.000000 0.000000 0.000000
vn 1.000000 0.000000 0.000000
vn 1.000000 0.000000 0.000000
vn 1.000000 0.000000 0.000000
vn 1.000000 0.000000 0.000000
g display_model polySurface7
f 59/57/57 64/58/58 58/60/59
f 58/60/59 64/58/58 57/59/60
f 60/61/61 61/62/62 62/64/63
f 62/64/63 61/62/62 63/63/64
f 62/64/63 63/63/64 59/57/57
f 59/57/57 63/63/64 64/58/58
f 61/62/62 65/65/65 63/63/64
f 63/63/64 65/65/65 66/66/66
f 57/59/60 64/58/58 68/68/67
f 68/68/67 64/58/58 67/67/68
v 6.373124 3.000000 5.000000
v 6.000000 3.000000 5.000000
v 6.373124 0.000000 5.000000
v 6.000000 0.000000 5.000000
vt 2.863612 -2.717088
vt 2.722391 -2.717088
vt 2.863612 -1.581645
vt 2.722391 -1.581645
vn 0.000000 0.000000 -1.000000
vn 0.000000 0.000000 -1.000000
vn 0.000000 0.000000 -1.000000
vn 0.000000 0.000000 -1.000000
g display_model polySurface20
f 71/69/69 72/70/70 69/71/71
f 69/71/71 72/70/70 70/72/72
v 6.373124 3.000000 1.000000
v 6.000000 3.000000 1.000000
v 6.000000 0.000000 1.000000
v 6.373124 0.000000 1.000000
vt 3.042793 -2.717088
vt 2.901572 -2.717088
vt 3.042793 -1.581645
vt 2.901572 -1.581645
vn 0.000000 0.000000 1.000000
vn 0.000000 0.000000 1.000000
vn 0.000000 0.000000 1.000000
vn 0.000000 0.000000 1.000000
g display_model polySurface21
f 73/73/73 74/74/74 76/75/75
f 76/75/75 74/74/74 75/76/76
v -6.373124 5.000000 1.000000
v -6.373124 5.000000 5.000000
v -6.373124 5.000000 -5.000000
v -6.373124 3.000000 -5.000000
v -6.373124 3.000000 12.000000
v -6.373124 5.000000 12.000000
v -6.373124 3.000000 1.000000
v -6.373124 3.000000 5.000000
v -6.373124 0.000000 5.000000
v -6.373124 0.000000 12.000000
v -6.373124 0.000000 -5.000000
v -6.373124 0.000000 1.000000
vt -0.331792 -0.446202
vt -0.331792 -2.717088
vt -1.088754 -2.717088
vt -1.088754 -0.446202
vt -0.331792 3.717088
vt -0.331792 1.067721
vt -1.088754 1.067721
vt -1.088754 3.717088
vt -2.224197 1.067721
vt -2.224197 3.717088
vt -2.224197 -2.717088
vt -2.224197 -0.446202
vn -1.000000 0.000000 0.000000
vn -1.000000 0.000000 0.000000
vn -1.000000 0.000000 0.000000
vn -1.000000 0.000000 0.000000
vn -1.000000 0.000000 0.000000
vn -1.000000 0.000000 0.000000
vn -1.000000 0.000000 0.000000
vn -1.000000 0.000000 0.000000
vn -1.000000 0.000000 0.000000
vn -1.000000 0.000000 0.000000
vn -1.000000 0.000000 0.000000
vn -1.000000 0.000000 0.000000
g display_model polySurface3
f 77/77/77 79/78/78 83/80/79
f 83/80/79 79/78/78 80/79/80
f 82/81/81 78/82/82 81/84/83
f 81/84/83 78/82/82 84/83/84
f 78/82/82 77/77/77 84/83/84
f 84/83/84 77/77/77 83/80/79
f 81/84/83 84/83/84 86/86/85
f 86/86/85 84/83/84 85/85/86
f 80/79/80 87/87/87 83/80/79
f 83/80/79 87/87/87 88/88/88
v -6.000000 5.000000 5.000000
v -6.000000 5.000000 1.000000
v -6.000000 3.000000 -5.000000
v -6.000000 5.000000 -5.000000
v -6.000000 5.000000 12.000000
v -6.000000 3.000000 12.000000
v -6.000000 3.000000 5.000000
v -6.000000 3.000000 1.000000
v -6.000000 0.000000 12.000000
v -6.000000 0.000000 5.000000
v -6.000000 0.000000 1.000000
v -6.000000 0.000000 -5.000000
vt 1.604557 1.446203
vt 0.847595 1.446203
vt 0.847595 3.717088
vt 1.604557 3.717088
vt 1.604557 -2.717088
vt 0.847595 -2.717088
vt 0.847595 -0.067721
vt 1.604557 -0.067721
vt -0.287848 -2.717088
vt -0.287848 -0.067721
vt -0.287848 1.446203
vt -0.287848 3.717088
vn 1.000000 0.000000 0.000000
vn 1.000000 0.000000 0.000000
vn 1.000000 0.000000 0.000000
vn 1.000000 0.000000 0.000000
vn 1.000000 0.000000 0.000000
vn 1.000000 0.000000 0.000000
vn 1.000000 0.000000 0.000000
vn 1.000000 0.000000 0.000000
vn 1.000000 0.000000 0.000000
vn 1.000000 0.000000 0.000000
vn 1.000000 0.000000 0.000000
vn 1.000000 0.000000 0.000000
g display_model polySurface2
f 90/89/89 96/90/90 92/92/91
f 92/92/91 96/90/90 91/91/92
f 93/93/93 94/94/94 89/96/95
f 89/96/95 94/94/94 95/95/96
f 89/96/95 95/95/96 90/89/89
f 90/89/89 95/95/96 96/90/90
f 94/94/94 97/97/97 95/95/96
f 95/95/96 97/97/97 98/98/98
f 91/91/92 96/90/90 100/100/99
f 100/100/99 96/90/90 99/99/100
v -6.373124 0.000000 1.000000
v -6.000000 0.000000 1.000000
v -6.000000 3.000000 1.000000
v -6.373124 3.000000 1.000000
vt 3.042793 -2.717088
vt 2.901572 -2.717088
vt 3.042793 -1.581645
vt 2.901572 -1.581645
vn 0.000000 0.000000 1.000000
vn 0.000000 0.000000 1.000000
vn 0.000000 0.000000 1.000000
vn 0.000000 0.000000 1.000000
g display_model polySurface23
f 103/101/101 104/102/102 102/103/103
f 102/103/103 104/102/102 101/104/104
v -6.000000 3.000000 5.000000
v -6.373124 3.000000 5.000000
v -6.000000 0.000000 5.000000
v -6.373124 0.000000 5.000000
vt 2.863612 -2.717088
vt 2.722391 -2.717088
vt 2.863612 -1.581645
vt 2.722391 -1.581645
vn 0.000000 0.000000 -1.000000
vn 0.000000 0.000000 -1.000000
vn 0.000000 0.000000 -1.000000
vn 0.000000 0.000000 -1.000000
g display_model polySurface29
f 107/105/105 108/106/106 105/107/107
f 105/107/107 108/106/106 106/108/108
v -22.000000 -0.000000 -23.000000
v 22.000000 -0.000000 -23.000000
v -22.000000 5.000000 -23.000000
v 22.000000 5.000000 -23.000000
vt -0.883187 8.772047
vt -0.883187 -7.772046
vt 0.996824 8.772047
vt 0.996824 -7.772046
vn 0.000000 0.000000 1.000000
vn 0.000000 0.000000 1.000000
vn 0.000000 0.000000 1.000000
vn 0.000000 0.000000 1.000000
g display_model pPlane6
f 109/109/109 110/110/110 111/111/111
f 111/111/111 110/110/110 112/112/112
