# This file uses centimeters as units for non-parametric coordinates.

mtllib gallery_template_01_display.mtl
v -6.000000 5.000000 12.000000
v -6.000000 0.000000 12.000000
v 6.000000 5.000000 12.000000
v 6.000000 0.000000 12.000000
vt 0.900021 1.932701
vt -0.846471 1.932701
vt -0.846471 -0.926481
vt 0.900021 -0.926481
vn 0.000000 0.000000 -1.000000
vn 0.000000 0.000000 -1.000000
vn 0.000000 0.000000 -1.000000
vn 0.000000 0.000000 -1.000000
g polySurface41 display_model
usemtl lambert2SG
f 2/1/1 1/2/2 4/4/3
f 4/4/3 1/2/2 3/3/4
v 22.000000 5.000000 12.000000
v 22.000000 0.000000 12.000000
v 6.373124 5.000000 12.000000
v 6.373124 0.000000 12.000000
vt -0.846471 -1.018066
vt 0.900021 -1.018066
vt -0.846471 -4.739476
vt 0.900021 -4.739476
vn 0.000000 0.000000 -1.000000
vn 0.000000 0.000000 -1.000000
vn 0.000000 0.000000 -1.000000
vn 0.000000 0.000000 -1.000000
g display_model polySurface40
f 8/6/5 7/5/6 6/8/7
f 6/8/7 7/5/6 5/7/8
v -22.000000 5.000000 12.000000
v -22.000000 0.000000 12.000000
v -6.373124 5.000000 12.000000
v -6.373124 0.000000 12.000000
vt 0.900021 5.739474
vt -0.846471 5.739474
vt -0.846471 2.025207
vt 0.900021 2.025207
vn 0.000000 0.000000 -1.000000
vn 0.000000 0.000000 -1.000000
vn 0.000000 0.000000 -1.000000
vn 0.000000 0.000000 -1.000000
g display_model polySurface38
f 10/9/9 9/10/10 12/12/11
f 12/12/11 9/10/10 11/11/12
v 22.000000 3.000000 -5.000000
v 22.000000 5.000000 -5.000000
v 22.000000 -0.000000 -5.000000
v 6.373124 5.000000 -5.000000
v 6.373124 3.000000 -5.000000
v 6.373124 -0.000000 -5.000000
vt 0.996824 -1.980099
vt 0.244819 -1.980099
vt 0.244819 -7.772046
vt 0.996824 -7.772046
vt -0.883187 -1.980099
vt -0.883187 -7.772046
vn 0.000000 0.000000 1.000000
vn 0.000000 0.000000 1.000000
vn 0.000000 0.000000 1.000000
vn 0.000000 0.000000 1.000000
vn 0.000000 0.000000 1.000000
vn 0.000000 0.000000 1.000000
g display_model polySurface30
f 16/13/13 17/14/14 14/16/15
f 14/16/15 17/14/14 13/15/16
f 17/14/14 18/17/17 13/15/16
f 13/15/16 18/17/17 15/18/18
v 22.000000 0.000000 -23.000000
v 22.000000 5.000000 -23.000000
v 22.000000 5.000000 -5.317296
v 22.000000 -0.000000 -5.317296
vt -0.833229 0.452015
vt 0.976086 0.452015
vt -0.833229 6.832603
vt 0.976086 6.832603
vn -1.000000 0.000000 0.000000
vn -1.000000 0.000000 0.000000
vn -1.000000 0.000000 0.000000
vn -1.000000 0.000000 0.000000
g display_model polySurface35
f 19/21/19 22/19/20 20/22/21
f 20/22/21 22/19/20 21/20/22
v -22.000000 5.000000 12.000000
v -22.000000 -0.000000 12.000000
v -22.000000 5.000000 -5.000000
v -22.000000 -0.000000 -5.000000
vt 0.976086 0.678026
vt -0.833228 0.678026
vt 0.976086 6.832603
vt -0.833229 6.832603
vn 1.000000 0.000000 0.000000
vn 1.000000 0.000000 0.000000
vn 1.000000 0.000000 0.000000
vn 1.000000 0.000000 0.000000
g display_model polySurface37
f 25/23/23 23/25/24 26/24/25
f 26/24/25 23/25/24 24/26/26
v -22.000000 5.000000 -23.000000
v -22.000000 0.000000 -23.000000
v -22.000000 5.000000 -5.317296
v -22.000000 -0.000000 -5.317296
vt 0.976086 -5.832604
vt 0.976086 0.560966
vt -0.833228 0.560966
vt -0.833229 -5.832604
vn 1.000000 0.000000 0.000000
vn 1.000000 0.000000 0.000000
vn 1.000000 0.000000 0.000000
vn 1.000000 0.000000 0.000000
g display_model polySurface36
f 27/27/27 29/28/28 28/30/29
f 28/30/29 29/28/28 30/29/30
v 2.000000 5.000000 -5.317296
v 22.000000 5.000000 -5.317296
v 22.000000 3.000000 -5.317296
v -2.000000 5.000000 -5.317296
v 2.000000 3.000000 -5.317296
v -2.000000 3.000000 -5.317296
v -22.000000 3.000000 -5.317296
v -22.000000 5.000000 -5.317296
v -22.000000 -0.000000 -5.317296
v -2.000000 -0.000000 -5.317296
v 2.000000 -0.000000 -5.317296
v 22.000000 -0.000000 -5.317296
vt -0.131184 -0.252003
vt -0.883187 -0.252003
vt -0.131184 -7.772047
vt -0.883187 1.252004
vt -0.883187 -7.772047
vt 0.996822 -7.772047
vt -0.131184 1.252004
vt 0.996822 -0.252003
vt -0.883187 8.772047
vt -0.131184 8.772047
vt 0.996822 1.252004
vt 0.996822 8.772047
vn 0.000000 0.000000 -1.000000
vn 0.000000 0.000000 -1.000000
vn 0.000000 0.000000 -1.000000
vn 0.000000 0.000000 -1.000000
vn 0.000000 0.000000 -1.000000
vn 0.000000 0.000000 -1.000000
vn 0.000000 0.000000 -1.000000
vn 0.000000 0.000000 -1.000000
vn 0.000000 0.000000 -1.000000
vn 0.000000 0.000000 -1.000000
vn 0.000000 0.000000 -1.000000
vn 0.000000 0.000000 -1.000000
g display_model polySurface12
f 35/31/31 31/32/32 33/33/33
f 33/33/33 31/32/32 32/35/34
f 36/37/35 34/34/36 35/31/31
f 35/31/31 34/34/36 31/32/32
f 37/40/37 38/39/38 36/37/35
f 36/37/35 38/39/38 34/34/36
f 39/42/39 37/40/37 40/41/40
f 40/41/40 37/40/37 36/37/35
f 41/38/41 35/31/31 42/36/42
f 42/36/42 35/31/31 33/33/33
v -22.000000 5.000000 -5.000000
v -22.000000 3.000000 -5.000000
v -22.000000 -0.000000 -5.000000
v -6.373125 3.000000 -5.000000
v -6.373125 5.000000 -5.000000
v -6.373125 -0.000000 -5.000000
vt 0.996824 8.772047
vt 0.244819 8.772047
vt 0.244819 3.070192
vt 0.996824 3.070192
vt -0.883187 8.772047
vt -0.883187 3.070192
vn 0.000000 0.000000 1.000000
vn 0.000000 0.000000 1.000000
vn 0.000000 0.000000 1.000000
vn 0.000000 0.000000 1.000000
vn 0.000000 0.000000 1.000000
vn 0.000000 0.000000 1.000000
g display_model polySurface33
f 43/43/43 44/44/44 47/46/45
f 47/46/45 44/44/44 46/45/46
f 44/44/44 45/47/47 46/45/46
f 46/45/46 45/47/47 48/48/48
v 2.000000 5.000000 -5.000000
v -2.000000 3.000000 -5.000000
v 2.000000 3.000000 -5.000000
v -2.000000 5.000000 -5.000000
v -2.000000 -0.000000 -5.000000
v 2.000000 -0.000000 -5.000000
v -6.000000 5.000000 -5.000000
v -6.000000 3.000000 -5.000000
v -6.000000 -0.000000 -5.000000
v 6.000000 5.000000 -5.000000
v 6.000000 3.000000 -5.000000
v 6.000000 -0.000000 -5.000000
vt 0.996824 1.252004
vt 0.244819 1.252004
vt 0.244819 -0.252004
vt 0.996824 -0.252004
vt 0.996824 2.475868
vt 0.244819 2.475868
vt -0.883187 2.475868
vt -0.883187 1.252004
vt 0.244819 -1.623048
vt 0.996824 -1.623048
vt -0.883187 -0.252004
vt -0.883187 -1.623048
vn 0.000000 0.000000 1.000000
vn 0.000000 0.000000 1.000000
vn 0.000000 0.000000 1.000000
vn 0.000000 0.000000 1.000000
vn 0.000000 0.000000 1.000000
vn 0.000000 0.000000 1.000000
vn 0.000000 0.000000 1.000000
vn 0.000000 0.000000 1.000000
vn 0.000000 0.000000 1.000000
vn 0.000000 0.000000 1.000000
vn 0.000000 0.000000 1.000000
vn 0.000000 0.000000 1.000000
g display_model polySurface32
f 52/49/49 50/50/50 49/52/51
f 49/52/51 50/50/50 51/51/52
f 55/53/53 56/54/54 52/49/49
f 52/49/49 56/54/54 50/50/50
f 56/54/54 57/55/55 50/50/50
f 50/50/50 57/55/55 53/56/56
f 49/52/51 51/51/52 58/58/57
f 58/58/57 51/51/52 59/57/58
f 51/51/52 54/59/59 59/57/58
f 59/57/58 54/59/59 60/60/60
v 22.000000 -0.000000 12.000000
v 22.000000 5.000000 12.000000
v 22.000000 5.000000 -5.005299
v 22.000000 0.000000 -4.994701
vt -0.833229 0.322902
vt -0.833229 -5.832604
vt 0.976086 -5.832604
vt 0.976086 0.322902
vn -1.000000 0.000000 0.000000
vn -1.000000 0.000000 0.000000
vn -1.000000 0.000000 0.000000
vn -1.000000 0.000000 0.000000
g display_model polySurface34
f 61/62/61 62/63/62 64/61/63
f 64/61/63 62/63/62 63/64/64
v 6.000000 5.000000 1.000000
v 6.000000 5.000000 -5.000000
v 6.000000 3.000000 -5.000000
v 6.000000 5.000000 12.000000
v 6.000000 5.000000 5.000000
v 6.000000 3.000000 12.000000
v 6.000000 3.000000 1.000000
v 6.000000 3.000000 5.000000
v 6.000000 0.000000 5.000000
v 6.000000 0.000000 12.000000
v 6.000000 0.000000 -5.000000
v 6.000000 0.000000 1.000000
vt -0.331792 -0.446202
vt -0.331792 -2.717088
vt -1.088754 -2.717088
vt -1.088754 -0.446202
vt -0.331792 3.717088
vt -0.331792 1.067721
vt -1.088754 1.067721
vt -1.088754 3.717088
vt -2.224197 1.067721
vt -2.224197 3.717088
vt -2.224197 -2.717088
vt -2.224197 -0.446202
vn -1.000000 0.000000 0.000000
vn -1.000000 0.000000 0.000000
vn -1.000000 0.000000 0.000000
vn -1.000000 0.000000 0.000000
vn -1.000000 0.000000 0.000000
vn -1.000000 0.000000 0.000000
vn -1.000000 0.000000 0.000000
vn -1.000000 0.000000 0.000000
vn -1.000000 0.000000 0.000000
vn -1.000000 0.000000 0.000000
vn -1.000000 0.000000 0.000000
vn -1.000000 0.000000 0.000000
g display_model polySurface5
f 65/65/65 66/66/66 71/68/67
f 71/68/67 66/66/66 67/67/68
f 68/69/69 69/70/70 70/72/71
f 70/72/71 69/70/70 72/71/72
f 69/70/70 65/65/65 72/71/72
f 72/71/72 65/65/65 71/68/67
f 70/72/71 72/71/72 74/74/73
f 74/74/73 72/71/72 73/73/74
f 67/67/68 75/75/75 71/68/67
f 71/68/67 75/75/75 76/76/76
v 6.373124 3.000000 -5.000000
v 6.373124 5.000000 -5.000000
v 6.373124 5.000000 1.000000
v 6.373124 5.000000 12.000000
v 6.373124 3.000000 12.000000
v 6.373124 5.000000 5.000000
v 6.373124 3.000000 5.000000
v 6.373124 3.000000 1.000000
v 6.373124 0.000000 12.000000
v 6.373124 0.000000 5.000000
v 6.373124 0.000000 1.000000
v 6.373124 0.000000 -5.000000
vt 1.604557 1.446203
vt 0.847595 1.446203
vt 0.847595 3.717088
vt 1.604557 3.717088
vt 1.604557 -2.717088
vt 0.847595 -2.717088
vt 0.847595 -0.067721
vt 1.604557 -0.067721
vt -0.287848 -2.717088
vt -0.287848 -0.067721
vt -0.287848 1.446203
vt -0.287848 3.717088
vn 1.000000 0.000000 0.000000
vn 1.000000 0.000000 0.000000
vn 1.000000 0.000000 0.000000
vn 1.000000 0.000000 0.000000
vn 1.000000 0.000000 0.000000
vn 1.000000 0.000000 0.000000
vn 1.000000 0.000000 0.000000
vn 1.000000 0.000000 0.000000
vn 1.000000 0.000000 0.000000
vn 1.000000 0.000000 0.000000
vn 1.000000 0.000000 0.000000
vn 1.000000 0.000000 0.000000
g display_model polySurface7
f 79/77/77 84/78/78 78/80/79
f 78/80/79 84/78/78 77/79/80
f 80/81/81 81/82/82 82/84/83
f 82/84/83 81/82/82 83/83/84
f 82/84/83 83/83/84 79/77/77
f 79/77/77 83/83/84 84/78/78
f 81/82/82 85/85/85 83/83/84
f 83/83/84 85/85/85 86/86/86
f 77/79/80 84/78/78 88/88/87
f 88/88/87 84/78/78 87/87/88
v -6.373124 5.000000 1.000000
v -6.373124 5.000000 5.000000
v -6.373124 5.000000 -5.000000
v -6.373124 3.000000 -5.000000
v -6.373124 3.000000 12.000000
v -6.373124 5.000000 12.000000
v -6.373124 3.000000 1.000000
v -6.373124 3.000000 5.000000
v -6.373124 0.000000 5.000000
v -6.373124 0.000000 12.000000
v -6.373124 0.000000 -5.000000
v -6.373124 0.000000 1.000000
vt -0.331792 -0.446202
vt -0.331792 -2.717088
vt -1.088754 -2.717088
vt -1.088754 -0.446202
vt -0.331792 3.717088
vt -0.331792 1.067721
vt -1.088754 1.067721
vt -1.088754 3.717088
vt -2.224197 1.067721
vt -2.224197 3.717088
vt -2.224197 -2.717088
vt -2.224197 -0.446202
vn -1.000000 0.000000 0.000000
vn -1.000000 0.000000 0.000000
vn -1.000000 0.000000 0.000000
vn -1.000000 0.000000 0.000000
vn -1.000000 0.000000 0.000000
vn -1.000000 0.000000 0.000000
vn -1.000000 0.000000 0.000000
vn -1.000000 0.000000 0.000000
vn -1.000000 0.000000 0.000000
vn -1.000000 0.000000 0.000000
vn -1.000000 0.000000 0.000000
vn -1.000000 0.000000 0.000000
g display_model polySurface3
f 89/89/89 91/90/90 95/92/91
f 95/92/91 91/90/90 92/91/92
f 94/93/93 90/94/94 93/96/95
f 93/96/95 90/94/94 96/95/96
f 90/94/94 89/89/89 96/95/96
f 96/95/96 89/89/89 95/92/91
f 93/96/95 96/95/96 98/98/97
f 98/98/97 96/95/96 97/97/98
f 92/91/92 99/99/99 95/92/91
f 95/92/91 99/99/99 100/100/100
v -6.000000 5.000000 5.000000
v -6.000000 5.000000 1.000000
v -6.000000 3.000000 -5.000000
v -6.000000 5.000000 -5.000000
v -6.000000 5.000000 12.000000
v -6.000000 3.000000 12.000000
v -6.000000 3.000000 5.000000
v -6.000000 3.000000 1.000000
v -6.000000 0.000000 12.000000
v -6.000000 0.000000 5.000000
v -6.000000 0.000000 1.000000
v -6.000000 0.000000 -5.000000
vt 1.604557 1.446203
vt 0.847595 1.446203
vt 0.847595 3.717088
vt 1.604557 3.717088
vt 1.604557 -2.717088
vt 0.847595 -2.717088
vt 0.847595 -0.067721
vt 1.604557 -0.067721
vt -0.287848 -2.717088
vt -0.287848 -0.067721
vt -0.287848 1.446203
vt -0.287848 3.717088
vn 1.000000 0.000000 0.000000
vn 1.000000 0.000000 0.000000
vn 1.000000 0.000000 0.000000
vn 1.000000 0.000000 0.000000
vn 1.000000 0.000000 0.000000
vn 1.000000 0.000000 0.000000
vn 1.000000 0.000000 0.000000
vn 1.000000 0.000000 0.000000
vn 1.000000 0.000000 0.000000
vn 1.000000 0.000000 0.000000
vn 1.000000 0.000000 0.000000
vn 1.000000 0.000000 0.000000
g display_model polySurface2
f 102/101/101 108/102/102 104/104/103
f 104/104/103 108/102/102 103/103/104
f 105/105/105 106/106/106 101/108/107
f 101/108/107 106/106/106 107/107/108
f 101/108/107 107/107/108 102/101/101
f 102/101/101 107/107/108 108/102/102
f 106/106/106 109/109/109 107/107/108
f 107/107/108 109/109/109 110/110/110
f 103/103/104 108/102/102 112/112/111
f 112/112/111 108/102/102 111/111/112
v -22.000000 -0.000000 -23.000000
v 22.000000 -0.000000 -23.000000
v -22.000000 5.000000 -23.000000
v 22.000000 5.000000 -23.000000
vt -0.883187 8.772047
vt -0.883187 -7.772046
vt 0.996824 8.772047
vt 0.996824 -7.772046
vn 0.000000 0.000000 1.000000
vn 0.000000 0.000000 1.000000
vn 0.000000 0.000000 1.000000
vn 0.000000 0.000000 1.000000
g display_model pPlane6
f 113/113/113 114/114/114 115/115/115
f 115/115/115 114/114/114 116/116/116
