# This file uses centimeters as units for non-parametric coordinates.

mtllib test_gallery_02.mtl
v 15.000000 0.000000 9.000000
v 15.000000 4.000000 9.000000
v -9.000000 0.000000 9.000000
v -9.000000 4.000000 9.000000
vt 3.210454 1.396585
vt 3.210454 2.713135
vt -4.688855 1.396585
vt -4.688856 2.713135
vn 0.000000 0.000000 -1.000000
vn 0.000000 0.000000 -1.000000
vn 0.000000 0.000000 -1.000000
vn 0.000000 0.000000 -1.000000
g polySurface3
usemtl lambert2SG
f 3/1/1 4/2/2 1/3/3
f 1/3/3 4/2/2 2/4/4
v -9.000000 0.000000 9.000000
v -9.000000 4.000000 9.000000
v -9.000000 0.000000 -10.000000
v -9.000000 4.000000 -10.000000
vt -4.688855 -0.018766
vt -4.688855 -1.335317
vt 1.564764 -0.018766
vt 1.564764 -1.335317
vn 1.000000 0.000000 0.000000
vn 1.000000 0.000000 0.000000
vn 1.000000 0.000000 0.000000
vn 1.000000 0.000000 0.000000
g polySurface6
f 7/5/5 8/6/6 5/7/7
f 5/7/7 8/6/6 6/8/8
v 15.000000 0.000000 9.000000
v 15.000000 4.000000 9.000000
v 9.000000 4.000000 -10.000000
v 9.000000 0.000000 -10.000000
vt -4.688855 1.346466
vt -4.688855 0.029915
vt 1.564764 1.346466
vt 1.564764 0.029915
vn -0.953583 0.000000 0.301131
vn -0.953583 0.000000 0.301131
vn -0.953583 0.000000 0.301131
vn -0.953583 0.000000 0.301131
g polySurface2
f 9/9/9 10/10/10 12/11/11
f 12/11/11 10/10/10 11/12/12
v 6.000000 4.000000 -3.000000
v 6.000000 0.000000 -3.000000
v -6.000000 0.000000 -3.000000
v -6.000000 4.000000 -3.000000
vt 2.261532 0.483489
vt -2.613788 0.483490
vt 2.261533 -1.141618
vt -2.613789 -1.141618
vn 0.000000 0.000000 -1.000000
vn 0.000000 0.000000 -1.000000
vn 0.000000 0.000000 -1.000000
vn 0.000000 0.000000 -1.000000
g polySurface7
f 16/13/13 13/14/14 15/15/15
f 15/15/15 13/14/14 14/16/16
v 6.000000 0.000000 -1.000000
v 6.000000 4.000000 -1.000000
v 6.000000 0.000000 -3.000000
v 6.000000 4.000000 -3.000000
vt 1.957251 -1.937661
vt 2.769805 -1.937661
vt 1.957251 -0.312553
vt 2.769805 -0.312553
vn 1.000000 0.000000 0.000000
vn 1.000000 0.000000 0.000000
vn 1.000000 0.000000 0.000000
vn 1.000000 0.000000 0.000000
g polySurface9
f 17/17/17 19/18/18 18/19/19
f 18/19/19 19/18/18 20/20/20
v -6.000000 4.000000 -1.000000
v -6.000000 0.000000 -1.000000
v 6.000000 0.000000 -1.000000
v 6.000000 4.000000 -1.000000
vt 2.261533 2.141618
vt -2.613789 2.141618
vt 2.261533 0.516512
vt -2.613788 0.516511
vn 0.000000 0.000000 1.000000
vn 0.000000 0.000000 1.000000
vn 0.000000 0.000000 1.000000
vn 0.000000 0.000000 1.000000
g polySurface11
f 22/21/21 23/22/22 21/23/23
f 21/23/23 23/22/22 24/24/24
v -6.000000 0.000000 -1.000000
v -6.000000 4.000000 -1.000000
v -6.000000 4.000000 -3.000000
v -6.000000 0.000000 -3.000000
vt 1.947713 -0.294207
vt 2.760267 -0.294207
vt 1.947713 1.330900
vt 2.760267 1.330900
vn -1.000000 0.000000 0.000000
vn -1.000000 0.000000 0.000000
vn -1.000000 0.000000 0.000000
vn -1.000000 0.000000 0.000000
g polySurface12
f 28/25/25 25/26/26 27/27/27
f 27/27/27 25/26/26 26/28/28
v -9.000000 4.000000 -10.000000
v 9.000000 4.000000 -10.000000
v -9.000000 0.000000 -10.000000
v 9.000000 0.000000 -10.000000
vt 1.235627 -2.700550
vt 1.235626 -1.383999
vt -4.688854 -2.700550
vt -4.688855 -1.383999
vn 0.000000 0.000000 1.000000
vn 0.000000 0.000000 1.000000
vn 0.000000 0.000000 1.000000
vn 0.000000 0.000000 1.000000
g polySurface5
f 29/29/29 31/30/30 30/31/31
f 30/31/31 31/30/30 32/32/32
