# This file uses centimeters as units for non-parametric coordinates.

mtllib test_gallery.mtl
v 6.000000 3.000000 -6.000000
v 6.000000 0.000000 -6.000000
v -1.000000 5.000000 -6.000000
v -1.000000 0.000000 -6.000000
v 6.000000 2.000000 -6.000000
v -1.000000 2.000000 -6.000000
v -6.000000 2.000000 -6.000000
v -6.000000 5.000000 -6.000000
v -6.000000 0.000000 -6.000000
vt 0.000830 0.998008
vt 0.000830 0.583001
vt 0.249834 0.583001
vt 0.249834 0.998008
vt 0.166833 0.001992
vt 0.249834 0.001992
vt 0.415837 0.583001
vt 0.415837 0.998008
vt 0.415837 0.001992
vn 0.000000 0.000000 1.000000
vn 0.000000 0.000000 1.000000
vn 0.000000 0.000000 1.000000
vn 0.000000 0.000000 1.000000
vn 0.000000 0.000000 1.000000
vn 0.000000 0.000000 1.000000
vn 0.000000 0.000000 1.000000
vn 0.000000 0.000000 1.000000
vn 0.000000 0.000000 1.000000
g north_wall
usemtl lambert3SG
f 8/1/1 7/4/2 3/2/3
f 7/4/2 6/3/4 3/2/3
f 3/2/3 6/3/4 1/5/5
f 6/3/4 5/6/6 1/5/5
f 6/3/4 4/7/7 5/6/6
f 4/7/7 2/9/8 5/6/6
f 7/4/2 9/8/9 6/3/4
f 9/8/9 4/7/7 6/3/4
v 6.000000 3.000000 -1.000000
v 6.000000 3.000000 1.000000
v 6.000000 2.000000 -6.000000
v 6.000000 3.000000 -6.000000
v 6.000000 2.000000 1.000000
v 6.000000 2.000000 -1.000000
v 6.000000 3.000000 6.000000
v 6.000000 2.000000 6.000000
v 6.000000 0.000000 -1.000000
v 6.000000 0.000000 -6.000000
v 6.000000 0.000000 1.000000
v 6.000000 0.000000 6.000000
vt 0.249502 0.416999
vt 0.166501 0.416999
vt 0.166501 0.001992
vt 0.249502 0.001992
vt 0.249502 0.583001
vt 0.166501 0.583001
vt 0.000498 0.416999
vt 0.000498 0.001992
vt 0.166501 0.998008
vt 0.249502 0.998008
vt 0.000498 0.998008
vt 0.000498 0.583001
vn -1.000000 -0.000000 0.000000
vn -1.000000 0.000000 0.000000
vn -1.000000 0.000000 0.000000
vn -1.000000 0.000000 0.000000
vn -1.000000 -0.000001 0.000000
vn -1.000000 -0.000000 0.000000
vn -1.000000 0.000000 0.000000
vn -1.000000 0.000000 0.000000
vn -1.000000 0.000000 0.000000
vn -1.000000 0.000000 0.000000
vn -1.000000 0.000000 0.000000
vn -1.000000 0.000000 0.000000
g east_wall
f 10/10/10 13/13/11 15/11/12
f 13/13/11 12/12/13 15/11/12
f 11/14/14 10/10/10 14/15/15
f 10/10/10 15/11/12 14/15/15
f 17/18/16 16/19/17 14/15/15
f 16/19/17 11/14/14 14/15/15
f 15/11/12 12/12/13 18/16/18
f 12/12/13 19/17/19 18/16/18
f 21/20/20 17/18/16 20/21/21
f 17/18/16 14/15/15 20/21/21
v -6.000000 0.000000 6.000000
v 6.000000 0.000000 6.000000
v -6.000000 5.000000 6.000000
v 6.000000 3.000000 6.000000
v -1.000000 0.000000 6.000000
v -1.000000 5.000000 6.000000
v -6.000000 2.000000 6.000000
v -1.000000 2.000000 6.000000
v 6.000000 2.000000 6.000000
vt 0.166833 0.998008
vt 0.166833 0.583001
vt 0.415837 0.583001
vt 0.415837 0.998008
vt 0.000830 0.998008
vt 0.000830 0.583001
vt 0.166833 0.001992
vt 0.249834 0.001992
vt 0.000830 0.001992
vn 0.000000 0.000000 -1.000000
vn 0.000000 0.000000 -1.000000
vn 0.000000 0.000000 -1.000000
vn 0.000000 0.000000 -1.000000
vn 0.000000 0.000000 -1.000000
vn 0.000000 0.000000 -1.000000
vn 0.000000 0.000000 -1.000000
vn 0.000000 0.000000 -1.000000
vn 0.000000 0.000000 -1.000000
g south_wall
f 28/22/22 24/25/23 29/23/24
f 24/25/23 27/24/25 29/23/24
f 27/24/25 25/29/26 29/23/24
f 25/29/26 30/28/27 29/23/24
f 22/26/28 28/22/22 26/27/29
f 28/22/22 29/23/24 26/27/29
f 30/28/27 23/30/30 29/23/24
f 23/30/30 26/27/29 29/23/24
v -6.000000 5.000000 6.000000
v -6.000000 -0.000000 6.000000
v -6.000000 5.000000 -6.000000
v -6.000000 0.000000 -6.000000
vt 0.415837 0.998008
vt 0.000830 0.998008
vt 0.000830 0.001992
vt 0.415837 0.001992
vn 1.000000 0.000000 0.000000
vn 1.000000 0.000000 0.000000
vn 1.000000 0.000000 0.000000
vn 1.000000 0.000000 0.000000
g west_wall
f 31/31/31 32/32/32 33/34/33
f 33/34/33 32/32/32 34/33/34
